<?xml version="1.0" encoding="utf-8"?>
<!-- Generator: Adobe Illustrator 23.0.0, SVG Export Plug-In . SVG Version: 6.00 Build 0)  -->
<svg version="1.1" id="Layer_1" xmlns="http://www.w3.org/2000/svg" xmlns:xlink="http://www.w3.org/1999/xlink" x="0px" y="0px"
	 viewBox="0 0 24 24" style="enable-background:new 0 0 24 24;" xml:space="preserve">
<style type="text/css">
	.st0{fill:#606060;}
	.st1{fill:none;}
</style>
<path class="st0" d="M20.5,3l-0.16,0.03L15,5.1L9,3L3.36,4.9C3.15,4.97,3,5.15,3,5.38V20.5C3,20.78,3.22,21,3.5,21l0.16-0.03L9,18.9
	l6,2.1l5.64-1.9c0.21-0.07,0.36-0.25,0.36-0.48V3.5C21,3.22,20.78,3,20.5,3z M15,19l-6-2.11V5l6,2.11V19z"/>
<path class="st1" d="M0,0h24v24H0V0z"/>
</svg>
