<svg id="Lag_1" data-name="Lag 1" xmlns="http://www.w3.org/2000/svg" viewBox="0 0 343.71781 140.99348"><defs><style>.cls-1{fill:#d61019;}.cls-2{fill:#fff;}</style></defs><title>logo_full-color</title><path class="cls-1" d="M30.84407,132.83124c-18.46309,0-25.02135-11.542-25.02135-21.42711,0-8.431,4.05588-13.96688,12.57743-22.49717L57.4487,49.45277H33.38964c-18.07018,0-24.50782-10.18715-24.50782-19.72278s6.43764-19.72708,24.50782-19.72708h73.68752c14.36823,0,23.65351,8.40946,23.65351,21.42278,0,6.895-2.57164,12.06839-9.48806,19.07126L78.77654,93.38137h30.16884c21.34522,0,23.65351,13.79,23.65351,19.72709,0,5.92849-2.30829,19.72278-23.65351,19.72278Z"/><path class="cls-2" d="M107.07532,15.83043c12.39625,0,17.8242,6.95108,17.8242,15.59354,0,5.09574-1.864,8.96176-7.80549,14.98086L64.79913,99.2132h44.14441c11.71443,0,17.8242,4.78508,17.8242,13.89353s-6.10977,13.89786-17.8242,13.89786H30.842c-13.24188,0-19.18337-6.95109-19.18337-15.59787,0-5.86377,2.37728-9.88081,10.86881-18.37657l48.895-49.404H33.392c-12.7373,0-18.67852-5.55741-18.67852-13.89354,0-8.34043,5.94122-13.90215,18.67852-13.90215h73.68331m0-11.6585H33.392c-22.39363,0-30.33712,13.76841-30.33712,25.56065,0,11.78794,7.94349,25.552,30.33712,25.552H43.48L14.23445,84.82778C4.8067,94.26417,0,100.98657,0,111.40672c0,13.56561,9.53572,27.25635,30.842,27.25635h78.10157c21.73762,0,29.4828-13.19886,29.4828-25.55634s-7.74518-25.55633-29.4828-25.55633H92.7587l32.6196-32.9432c5.81639-5.88966,11.184-12.76307,11.184-23.18323,0-13.56561-9.11726-27.252-29.487-27.252"/><path class="cls-1" d="M114.60456,70.49458A64.66311,64.66311,0,1,0,179.2699,5.82492a64.7377,64.7377,0,0,0-64.66534,64.66966"/><path class="cls-2" d="M179.26858,0a70.49674,70.49674,0,1,0,70.49017,70.49458A70.57329,70.57329,0,0,0,179.26858,0m-58.836,70.49458a58.83394,58.83394,0,1,1,58.836,58.84042,58.8321,58.8321,0,0,1-58.836-58.84042"/><path class="cls-1" d="M208.56783,70.49458A64.661,64.661,0,1,0,273.23318,5.82492a64.73771,64.73771,0,0,0-64.66535,64.66966"/><path class="cls-2" d="M273.23186,0a70.49674,70.49674,0,1,0,70.486,70.49458A70.57617,70.57617,0,0,0,273.23186,0m-58.836,70.49458a58.82959,58.82959,0,1,1,58.836,58.84042,58.82923,58.82923,0,0,1-58.836-58.84042"/><path class="cls-1" d="M109.09681,99.13683c11.71443,0,17.8242,4.78076,17.8242,13.89354s-6.10977,13.89353-17.8242,13.89353H30.99524c-13.24214,0-19.18363-6.94677-19.18363-15.59355,0-5.86375,2.37754-9.87648,10.86459-18.37226L71.57544,43.54975H33.54528c-12.7373,0-18.67878-5.55741-18.67878-13.89354S20.808,15.75837,33.54528,15.75837h73.68305c12.392,0,17.82868,6.94675,17.82868,15.59786,0,5.09573-1.8727,8.94882-7.80971,14.97223L64.9524,99.13683Z"/><path class="cls-1" d="M239.21386,71.48437a58.83183,58.83183,0,1,1-58.82761-58.83609,58.82681,58.82681,0,0,1,58.82761,58.83609"/><path class="cls-1" d="M332.94276,71.66A58.83183,58.83183,0,1,1,274.11093,12.8239,58.82771,58.82771,0,0,1,332.94276,71.66"/><path class="cls-2" d="M167.55389,80.872a2.03427,2.03427,0,0,1-2.08839,2.05384c-1.7605,0-2.24376-1.08732-2.619-3.47339a9.48476,9.48476,0,0,1-7.99538,3.62009c-9.488,0-13.11678-6.53255-13.11678-14.08769,0-9.07826,5.68235-14.08339,14.00981-14.08339,6.8045,0,10.429,4.07314,10.429,6.4635a2.56274,2.56274,0,0,1-2.87817,2.69242c-3.02882,0-1.90694-4.21984-7.88293-4.21984-4.21995,0-7.54662,2.76146-7.54662,9.56153,0,5.30284,2.61483,8.96607,7.61984,8.96607a6.186,6.186,0,0,0,6.39024-5.49269h-3.9998c-1.30306,0-2.76151-.48758-2.76151-2.35155a2.15478,2.15478,0,0,1,2.39045-2.35587h7.54662c1.79053,0,2.50264.89747,2.50264,2.58456Z"/><path class="cls-2" d="M173.04662,58.11551a3.06345,3.06345,0,1,1,6.12689,0V79.86623a3.06345,3.06345,0,0,1-6.12689,0Z"/><path class="cls-2" d="M197.74142,80.7952c-.63441,1.75612-1.8295,2.13151-3.73249,2.13151-1.90272,0-3.10229-.37539-3.74513-2.13151l-7.54214-21.22a5.26489,5.26489,0,0,1-.37107-1.79495c0-2.05813,1.56616-2.72693,3.10229-2.72693,1.64385,0,2.53714.85865,3.10229,2.68379L194.08241,76.049h.07321l5.75609-18.31185c.55646-1.82514,1.45818-2.68379,2.87343-2.68379,1.53192,0,3.10229.6688,3.10229,2.72693a5.483,5.483,0,0,1-.37106,1.795Z"/><path class="cls-2" d="M223.14622,66.85722c5.60045,1.26855,7.02439,4.59955,7.02439,7.73207,0,4.85842-3.66323,8.48714-11.059,8.48714-7.77073,0-11.25277-3.88761-11.25277-6.80007a2.46669,2.46669,0,0,1,2.58032-2.5414c3.32667,0,2.47235,4.85842,8.67245,4.85842,3.17577,0,4.92759-1.76042,4.92759-3.55535,0-1.07869-.51354-2.26957-2.61483-2.796l-6.9122-1.7561c-5.56174-1.42819-6.57143-4.48735-6.57143-7.361,0-5.98026,5.53171-8.22394,10.72239-8.22394,4.78063,0,10.42,2.69241,10.42,6.278a2.53831,2.53831,0,0,1-2.796,2.42921c-2.84341,0-2.317-3.99546-8.03408-3.99546-2.8392,0-4.40957,1.30736-4.40957,3.17135,0,1.8726,2.24349,2.468,4.18519,2.91678Z"/><path class="cls-2" d="M234.65313,58.11551a3.06345,3.06345,0,1,1,6.12689,0v8.89273l9.63922-10.61A3.22248,3.22248,0,0,1,252.8484,55.052a2.67074,2.67074,0,0,1,2.91662,2.46806,2.9,2.9,0,0,1-1.00943,2.09264L248.47754,66.223l7.43417,11.31762a5.1702,5.1702,0,0,1,1.15638,2.42921c0,2.28251-1.68256,2.9556-3.13679,2.9556a2.73432,2.73432,0,0,1-2.72253-1.60508l-7.06759-10.912L240.78,73.76948v6.09675a3.06345,3.06345,0,0,1-6.12689,0Z"/><path class="cls-2" d="M260.247,58.11551a3.06345,3.06345,0,1,1,6.12689,0V72.83318c0,3.66323,2.05389,5.30715,5.57043,5.30715,3.50785,0,5.566-1.64392,5.566-5.30715V58.11551a3.06345,3.06345,0,1,1,6.12689,0V72.34993c0,7.39549-4.56074,10.72217-11.69284,10.72217-7.13685,0-11.69732-3.32668-11.69732-10.72217Z"/><path class="cls-2" d="M289.31662,59.13078c0-2.73555,1.41947-3.58988,3.58554-3.58988h7.47315c6.68361,0,12.8105,2.90815,12.8105,13.44911,0,8.51734-4.74192,13.44912-12.92717,13.44912h-7.35648c-2.16607,0-3.58554-.85864-3.58554-3.58557Zm6.12268,18.37657h5.15591c4.89308,0,6.46371-4.37084,6.46371-8.51734,0-5.30715-2.01938-8.52165-6.50243-8.52165H295.4393Z"/></svg>